<svg width="99" height="135" viewBox="0 0 99 135" fill="none" xmlns="http://www.w3.org/2000/svg">
<path d="M0 41C0 18.3563 18.3563 0 41 0H99V0C99 22.6437 80.6437 41 58 41H0V41Z" fill="url(#paint0_linear_108_7)"/>
<path d="M0 135C0 112.356 18.3563 94 41 94H99V94C99 116.644 80.6437 135 58 135H0V135Z" fill="url(#paint1_linear_108_7)"/>
<path d="M0 47H58C80.6437 47 99 65.3563 99 88V88H41C18.3563 88 0 69.6437 0 47V47Z" fill="url(#paint2_linear_108_7)"/>
<defs>
<linearGradient id="paint0_linear_108_7" x1="49.5" y1="0" x2="49.5" y2="41" gradientUnits="userSpaceOnUse">
<stop stop-color="#23BFB8"/>
<stop offset="1" stop-color="#85EA80" stop-opacity="0.7"/>
</linearGradient>
<linearGradient id="paint1_linear_108_7" x1="49.5" y1="94" x2="49.5" y2="135" gradientUnits="userSpaceOnUse">
<stop stop-color="#23BFB8"/>
<stop offset="1" stop-color="#85EA80" stop-opacity="0.7"/>
</linearGradient>
<linearGradient id="paint2_linear_108_7" x1="49.5" y1="47" x2="49.5" y2="88" gradientUnits="userSpaceOnUse">
<stop stop-color="#23BFB8"/>
<stop offset="1" stop-color="#85EA80" stop-opacity="0.7"/>
</linearGradient>
</defs>
</svg>
